<svg width="766" height="502" viewBox="0 0 766 502" fill="none" xmlns="http://www.w3.org/2000/svg">
<path fill-rule="evenodd" clip-rule="evenodd" d="M563.338 66.6256C493.89 -0.11388 390.175 -19.1094 300.779 20.5666C216.699 57.6903 155.234 132.524 135.155 222.215L131.697 237.666C130.941 241.04 131.116 244.406 132.051 247.495C132.168 250.354 132.923 253.23 134.377 255.916C139.474 265.325 151.233 268.821 160.641 263.724L191.736 246.881C286.881 195.345 387.269 154.139 491.185 123.97L521.477 115.176C530.724 112.491 540.072 110.199 549.498 108.302C549.533 108.343 549.568 108.384 549.603 108.424L570.486 132.694L584.439 161.236C634.99 264.639 592.761 389.462 489.814 440.936C386.602 492.542 261.413 451.017 209.236 348.735L290.812 302.436L308.185 294.848C335.447 282.94 363.602 273.195 392.391 265.701L411.801 260.648C422.156 257.953 428.366 247.373 425.67 237.018C422.974 226.662 412.395 220.453 402.039 223.148L382.63 228.2C351.875 236.206 321.798 246.617 292.675 259.337L274.374 267.331C273.755 267.601 273.152 267.903 272.565 268.236L174.293 324.01C165.418 329.047 161.972 340.104 166.412 349.292L172.299 361.473C181.429 380.363 192.631 397.571 205.5 412.956L134.397 421.844C116.774 424.047 98.7472 423.66 81.1979 420.735C56.7797 416.665 38.75 395.487 38.75 370.955C38.75 357.585 44.0613 344.762 53.5154 335.308L99.0942 289.729C106.661 282.163 106.661 269.895 99.0942 262.329C91.5278 254.763 79.2602 254.763 71.6938 262.329L26.115 307.908C9.39384 324.629 0 347.308 0 370.955C0 414.652 31.9447 451.811 74.8275 458.958C96.0406 462.493 117.832 462.966 139.203 460.295L227.171 449.299C231.121 448.805 234.644 447.155 237.442 444.73C310.893 505.514 416.216 521.059 507.144 475.595C629.112 414.611 679.143 266.726 619.252 144.217L604.204 113.436C603.477 111.95 602.563 110.562 601.484 109.308L595.411 102.25C595.726 102.23 596.041 102.21 596.355 102.191C625.782 100.399 655.316 102.576 684.161 108.666L687.781 109.43L691.783 90.4729L687.813 109.437C732.227 118.736 741.66 177.972 702.331 200.607L694.957 204.85C685.683 210.188 682.491 222.033 687.829 231.307C693.167 240.582 705.012 243.773 714.286 238.435L721.66 234.192C791.833 193.805 775.009 88.118 695.771 71.5127L695.754 71.5091L692.165 70.7515C659.916 63.9434 626.898 61.5087 593.999 63.513C583.734 64.1384 573.505 65.1773 563.338 66.6256ZM515.098 76.7066C458.254 35.6163 382.682 26.6045 316.483 55.9919L308.622 38.2837L316.446 56.0081C250.184 85.2595 200.135 141.549 178.544 209.971C274.556 158.44 375.724 117.141 480.381 86.757L510.673 77.9624C512.146 77.5348 513.621 77.1162 515.098 76.7066Z" fill="#EEFBF9" fill-opacity="0.6"/>
</svg>
